<svg xmlns="http://www.w3.org/2000/svg" width="38" height="38" viewBox="0 0 38 38">
    <g fill="none" fill-rule="evenodd">
        <circle cx="19" cy="19" r="19" fill="#F5D141"/>
        <path fill="#FFF" fill-rule="nonzero" d="M27.135 19.367a8.143 8.143 0 1 1-6.1-8.253.905.905 0 0 1-.451 1.752 6.333 6.333 0 1 0 4.745 6.357l-1.165 1.166a.905.905 0 0 1-1.28-1.28l2.56-2.558a.903.903 0 0 1 .716-.262.903.903 0 0 1 .718.262l2.559 2.559a.905.905 0 0 1-1.28 1.28l-1.022-1.023zM19 20.81a1.81 1.81 0 1 0 0-3.62 1.81 1.81 0 0 0 0 3.62z"/>
    </g>
</svg>
