<svg xmlns="http://www.w3.org/2000/svg" xmlns:xlink="http://www.w3.org/1999/xlink" width="18" height="18" viewBox="0 0 18 18">
    <defs>
        <path id="a" d="M9 18a8.958 8.958 0 0 0 4.943-1.478c.724-.476 3.09.66 3.648 0 .503-.596-.785-2.971-.448-3.684A9 9 0 1 0 9 18z"/>
    </defs>
    <g fill="none" fill-rule="evenodd">
        <g>
            <use fill="#187697" xlink:href="#a"/>
            <path stroke="#187697" stroke-width=".857" d="M9 17.571a8.571 8.571 0 1 1 7.755-4.916c-.202.429-.127.832.23 2.076l.01.034c.27.938.339 1.396.268 1.48-.086.102-.504.086-1.463-.096l-.012-.003c-1.224-.232-1.653-.263-2.08.018A8.528 8.528 0 0 1 9 17.571z"/>
        </g>
        <g stroke="#FFF" stroke-linecap="round" stroke-linejoin="round" stroke-width=".857">
            <path d="M6.601 9.416l1.266 1.456M7.867 10.872l3.646-3.17"/>
        </g>
    </g>
</svg>
