<?xml version="1.0" encoding="UTF-8"?>
<svg width="32px" height="32px" viewBox="0 0 32 32" version="1.1" xmlns="http://www.w3.org/2000/svg" xmlns:xlink="http://www.w3.org/1999/xlink">
    <!-- Generator: Sketch 47 (45396) - http://www.bohemiancoding.com/sketch -->
    <title>logo_app_bar</title>
    <desc>Created with Sketch.</desc>
    <defs></defs>
    <g id="Page-1" stroke="none" stroke-width="1" fill="none" fill-rule="evenodd">
        <g id="Login-/-Main" transform="translate(-578.000000, -17.000000)">
            <g id="logo+text" transform="translate(578.000000, 1.000000)">
                <g id="logo_app_bar" transform="translate(0.000000, 16.000000)">
                    <rect id="Rectangle-5-Copy-7" fill="#F4D141" x="0" y="13.7142857" width="13.7142857" height="4.57142857" rx="2.28571429"></rect>
                    <rect id="Rectangle-5-Copy-6" fill="#00D6A5" x="18.2857143" y="13.7142857" width="13.7142857" height="4.57142857" rx="2.28571429"></rect>
                    <rect id="Rectangle-5-Copy-5" fill="#35A9DB" transform="translate(16.000000, 25.142857) rotate(-90.000000) translate(-16.000000, -25.142857) " x="9.14285714" y="22.8571429" width="13.7142857" height="4.57142857" rx="2.28571429"></rect>
                    <rect id="Rectangle-5-Copy-4" fill="#FC487F" transform="translate(16.000000, 6.857143) rotate(-90.000000) translate(-16.000000, -6.857143) " x="9.14285714" y="4.57142857" width="13.7142857" height="4.57142857" rx="2.28571429"></rect>
                    <path d="M25.1428571,6.85714286 L25.1428571,4.57142857 C25.1428571,3.30906343 24.119508,2.28571429 22.8571429,2.28571429 L22.8571429,2.28571429 C21.5947777,2.28571429 20.5714286,3.30906343 20.5714286,4.57142857 L20.5714286,4.57142857 L20.5714286,9.14285714 L20.5714286,9.14285714 C20.5714286,9.77403971 20.8272659,10.3454683 21.2408988,10.7591012 C21.6545317,11.1727341 22.2259603,11.4285714 22.8571429,11.4285714 L27.4285714,11.4285714 C28.6909366,11.4285714 29.7142857,10.4052223 29.7142857,9.14285714 L29.7142857,9.14285714 C29.7142857,7.880492 28.6909366,6.85714286 27.4285714,6.85714286 L27.4285714,6.85714286 L25.1428571,6.85714286 Z" id="Combined-Shape-Copy-38" fill="#35A9DB"></path>
                    <path d="M6.85714286,6.85714286 L6.85714286,4.57142857 C6.85714286,3.30906343 5.83379371,2.28571429 4.57142857,2.28571429 L4.57142857,2.28571429 C3.30906343,2.28571429 2.28571429,3.30906343 2.28571429,4.57142857 L2.28571429,4.57142857 L2.28571429,9.14285714 L2.28571429,9.14285714 C2.28571429,9.77403971 2.54155157,10.3454683 2.9551845,10.7591012 C3.36881743,11.1727341 3.940246,11.4285714 4.57142857,11.4285714 L9.14285714,11.4285714 C10.4052223,11.4285714 11.4285714,10.4052223 11.4285714,9.14285714 L11.4285714,9.14285714 C11.4285714,7.880492 10.4052223,6.85714286 9.14285714,6.85714286 L9.14285714,6.85714286 L6.85714286,6.85714286 Z" id="Combined-Shape-Copy-37" fill="#00D6A5" transform="translate(6.857143, 6.857143) rotate(-90.000000) translate(-6.857143, -6.857143) "></path>
                    <path d="M6.85714286,25.1428571 L6.85714286,22.8571429 C6.85714286,21.5947777 5.83379371,20.5714286 4.57142857,20.5714286 L4.57142857,20.5714286 C3.30906343,20.5714286 2.28571429,21.5947777 2.28571429,22.8571429 L2.28571429,22.8571429 L2.28571429,27.4285714 L2.28571429,27.4285714 C2.28571429,28.059754 2.54155157,28.6311826 2.9551845,29.0448155 C3.36881743,29.4584484 3.940246,29.7142857 4.57142857,29.7142857 L9.14285714,29.7142857 C10.4052223,29.7142857 11.4285714,28.6909366 11.4285714,27.4285714 L11.4285714,27.4285714 C11.4285714,26.1662063 10.4052223,25.1428571 9.14285714,25.1428571 L9.14285714,25.1428571 L6.85714286,25.1428571 Z" id="Combined-Shape-Copy-36" fill="#FC487F" transform="translate(6.857143, 25.142857) rotate(-180.000000) translate(-6.857143, -25.142857) "></path>
                    <path d="M25.1428571,25.1428571 L25.1428571,22.8571429 C25.1428571,21.5947777 24.119508,20.5714286 22.8571429,20.5714286 L22.8571429,20.5714286 C21.5947777,20.5714286 20.5714286,21.5947777 20.5714286,22.8571429 L20.5714286,22.8571429 L20.5714286,27.4285714 L20.5714286,27.4285714 C20.5714286,28.059754 20.8272659,28.6311826 21.2408988,29.0448155 C21.6545317,29.4584484 22.2259603,29.7142857 22.8571429,29.7142857 L27.4285714,29.7142857 C28.6909366,29.7142857 29.7142857,28.6909366 29.7142857,27.4285714 L29.7142857,27.4285714 C29.7142857,26.1662063 28.6909366,25.1428571 27.4285714,25.1428571 L27.4285714,25.1428571 L25.1428571,25.1428571 Z" id="Combined-Shape-Copy-35" fill="#F4D141" transform="translate(25.142857, 25.142857) rotate(-270.000000) translate(-25.142857, -25.142857) "></path>
                </g>
            </g>
        </g>
    </g>
</svg>