<svg xmlns="http://www.w3.org/2000/svg" width="189" height="226" viewBox="0 0 189 226">
    <g fill="none" fill-rule="evenodd">
        <path stroke="#979797" stroke-opacity=".499" stroke-width="4" d="M168.997 2H20.003C10.06 2 2 10.06 2 20.003v148.994C2 178.94 10.06 187 20.003 187h148.994c9.942 0 18.003-8.06 18.003-18.003V20.003C187 10.06 178.94 2 168.997 2z" opacity=".4"/>
        <g transform="translate(41.5 81)">
            <ellipse cx="19.984" cy="6.045" fill="#4A4A4A" rx="6.082" ry="6.045"/>
            <ellipse cx="86.016" cy="6.045" fill="#4A4A4A" rx="6.082" ry="6.045"/>
            <ellipse cx="4.344" cy="23.318" fill="#E55B6C" rx="4.344" ry="4.318"/>
            <ellipse cx="101.656" cy="23.318" fill="#E55B6C" rx="4.344" ry="4.318"/>
            <path fill="#4A4A4A" d="M64.292 27.031h.003v-8.568h-22.59v8.568h.003C41.846 33.112 46.848 38 53 38c6.151 0 11.154-4.888 11.292-10.969z"/>
            <path fill="#DF5C6C" d="M44.812 31.57c1.562-1.884 4.642-2.206 8.186-2.206 3.543 0 6.623.322 8.185 2.206a9.283 9.283 0 0 1-8.185 4.878 9.283 9.283 0 0 1-8.186-4.878z"/>
        </g>
        <ellipse cx="94.5" cy="221" fill="#D8D8D8" opacity=".2" rx="53.5" ry="5"/>
    </g>
</svg>
