<svg xmlns="http://www.w3.org/2000/svg" width="189" height="226" viewBox="0 0 189 226">
    <g fill="none" fill-rule="evenodd">
        <path stroke="#979797" stroke-opacity=".499" stroke-width="4" d="M168.997 2H20.003C10.06 2 2 10.06 2 20.003v148.994C2 178.94 10.06 187 20.003 187h148.994c9.942 0 18.003-8.06 18.003-18.003V20.003C187 10.06 178.94 2 168.997 2z" opacity=".4"/>
        <g transform="translate(41.5 80)">
            <ellipse cx="3.655" cy="18.104" fill="#E55B6C" rx="3.655" ry="3.696"/>
            <ellipse cx="102.345" cy="18.104" fill="#E55B6C" rx="3.655" ry="3.696"/>
            <path fill="#4A4A4A" d="M62.702 29.538h.002v-7.896h-.002c-.119-5.246-4.417-9.463-9.702-9.463s-9.583 4.217-9.702 9.463h-.002v7.896h.002C43.417 34.784 47.715 39 53 39s9.583-4.216 9.702-9.462z"/>
            <path fill="#DF5C6C" d="M45.986 32.437c1.37-1.602 4.021-1.834 7.065-1.78 3.044.052 5.685.377 6.999 2.025a7.971 7.971 0 0 1-7.105 4.085 7.971 7.971 0 0 1-6.959-4.33z"/>
            <ellipse cx="6.272" cy="6.18" fill="#4A4A4A" rx="6.112" ry="6.18" transform="rotate(-90 15.991 -3.246)"/>
            <ellipse cx="6.361" cy="6.18" fill="#4A4A4A" rx="6.112" ry="6.18" transform="rotate(-90 44.319 -31.574)"/>
        </g>
        <ellipse cx="94.5" cy="221" fill="#D8D8D8" opacity=".2" rx="53.5" ry="5"/>
    </g>
</svg>
