
<svg xmlns="http://www.w3.org/2000/svg" width="24" height="24" viewBox="0 0 24 24">
    <g fill="none" fill-rule="nonzero">
        <g fill="#187697">
            <path d="M2 18c0-3.705 2.914-6 7-6s7 2.295 7 6v1H2v-1zm1 0h12c0-3.093-2.421-5-6-5s-6 1.907-6 5zm6-7a3.5 3.5 0 1 1 0-7 3.5 3.5 0 0 1 0 7zm0-1a2.5 2.5 0 1 0 0-5 2.5 2.5 0 0 0 0 5zM13.5 10.663c.192-.273.36-.564.501-.87a2.5 2.5 0 1 0 0-4.585 5.494 5.494 0 0 0-.501-.871 3.5 3.5 0 1 1 0 6.326zM18 19v-1h3c0-2.694-1.837-4.489-4.676-4.906a7.513 7.513 0 0 0-1.097-1.092C19.193 12.086 22 14.364 22 18v1h-4z"/>
        </g>
        <path d="M0 0h24v24H0z"/>
    </g>
</svg>
