
<svg xmlns="http://www.w3.org/2000/svg" xmlns:xlink="http://www.w3.org/1999/xlink" width="512" height="244" viewBox="0 0 512 244">
    <defs>
        <path id="a" d="M12 2C6.48 2 2 6.48 2 12s4.48 10 10 10 10-4.48 10-10S17.52 2 12 2zm0 18c-4.42 0-8-3.58-8-8s3.58-8 8-8 8 3.58 8 8-3.58 8-8 8z"/>
        <path id="c" d="M12 2C6.48 2 2 6.48 2 12s4.48 10 10 10 10-4.48 10-10S17.52 2 12 2zm0 18c-4.42 0-8-3.58-8-8s3.58-8 8-8 8 3.58 8 8-3.58 8-8 8z"/>
        <path id="e" d="M12 2C6.48 2 2 6.48 2 12s4.48 10 10 10 10-4.48 10-10S17.52 2 12 2zm0 18c-4.42 0-8-3.58-8-8s3.58-8 8-8 8 3.58 8 8-3.58 8-8 8z"/>
        <path id="g" d="M12 2C6.48 2 2 6.48 2 12s4.48 10 10 10 10-4.48 10-10S17.52 2 12 2zm0 18c-4.42 0-8-3.58-8-8s3.58-8 8-8 8 3.58 8 8-3.58 8-8 8z"/>
        <path id="i" d="M12 2C6.48 2 2 6.48 2 12s4.48 10 10 10 10-4.48 10-10S17.52 2 12 2zm0 18c-4.42 0-8-3.58-8-8s3.58-8 8-8 8 3.58 8 8-3.58 8-8 8z"/>
        <path id="k" d="M12 2C6.48 2 2 6.48 2 12s4.48 10 10 10 10-4.48 10-10S17.52 2 12 2zm0 18c-4.42 0-8-3.58-8-8s3.58-8 8-8 8 3.58 8 8-3.58 8-8 8z"/>
    </defs>
    <g fill="none" fill-rule="evenodd">
        <rect width="511" height="243" x=".5" y=".5" fill="#FFF" fill-rule="nonzero" stroke="#888" rx="4"/>
        <g opacity=".603">
            <g transform="translate(9 10)">
                <mask id="b" fill="#fff">
                    <use xlink:href="#a"/>
                </mask>
                <g fill="#000" fill-opacity=".54" mask="url(#b)">
                    <path d="M0 0h24v24H0z"/>
                </g>
            </g>
            <text fill="#000" fill-opacity=".87" font-family="NunitoSans-Regular, Nunito Sans" font-size="16" letter-spacing=".153" transform="translate(9 10)">
                <tspan x="36" y="16">1 (Erősen nem értek egyet strongly)</tspan>
            </text>
            <g transform="translate(9 50)">
                <mask id="d" fill="#fff">
                    <use xlink:href="#c"/>
                </mask>
                <g fill="#000" fill-opacity=".54" mask="url(#d)">
                    <path d="M0 0h24v24H0z"/>
                </g>
            </g>
            <g transform="translate(9 90)">
                <mask id="f" fill="#fff">
                    <use xlink:href="#e"/>
                </mask>
                <g fill="#000" fill-opacity=".54" mask="url(#f)">
                    <path d="M0 0h24v24H0z"/>
                </g>
            </g>
            <text fill="#000" fill-opacity=".87" font-family="NunitoSans-Regular, Nunito Sans" font-size="16" letter-spacing=".153" transform="translate(9 10)">
                <tspan x="36" y="56">2</tspan>
            </text>
            <text fill="#000" fill-opacity=".87" font-family="NunitoSans-Regular, Nunito Sans" font-size="16" letter-spacing=".153" transform="translate(9 10)">
                <tspan x="36" y="96">3</tspan>
            </text>
            <g transform="translate(9 130)">
                <mask id="h" fill="#fff">
                    <use xlink:href="#g"/>
                </mask>
                <g fill="#000" fill-opacity=".54" mask="url(#h)">
                    <path d="M0 0h24v24H0z"/>
                </g>
            </g>
            <text fill="#000" fill-opacity=".87" font-family="NunitoSans-Regular, Nunito Sans" font-size="16" letter-spacing=".153" transform="translate(9 10)">
                <tspan x="36" y="136">4</tspan>
            </text>
            <g transform="translate(9 170)">
                <mask id="j" fill="#fff">
                    <use xlink:href="#i"/>
                </mask>
                <g fill="#000" fill-opacity=".54" mask="url(#j)">
                    <path d="M0 0h24v24H0z"/>
                </g>
            </g>
            <text fill="#000" fill-opacity=".87" font-family="NunitoSans-Regular, Nunito Sans" font-size="16" letter-spacing=".153" transform="translate(9 10)">
                <tspan x="36" y="176">5</tspan>
            </text>
            <g transform="translate(9 210)">
                <mask id="l" fill="#fff">
                    <use xlink:href="#k"/>
                </mask>
                <g fill="#000" fill-opacity=".54" mask="url(#l)">
                    <path d="M0 0h24v24H0z"/>
                </g>
            </g>
            <text fill="#000" fill-opacity=".87" font-family="NunitoSans-Regular, Nunito Sans" font-size="16" letter-spacing=".153" transform="translate(9 10)">
                <tspan x="36" y="216">6 (Erősen egyetértek)</tspan>
            </text>
        </g>
    </g>
</svg>
